<svg width="126" height="32" viewBox="0 0 126 32" fill="none" xmlns="http://www.w3.org/2000/svg">
<path fill-rule="evenodd" clip-rule="evenodd" d="M41.8064 6H16C10.4772 6 6 10.4772 6 16C6 21.5228 10.4772 26 16 26H41.8065C46.2841 26 50.0744 23.0571 51.3487 19H42.4517C40.7948 19 39.4517 17.6569 39.4517 16C39.4517 14.3431 40.7948 13 42.4517 13H51.3486C50.0744 8.9429 46.2841 6 41.8064 6ZM41.8065 32C49.6176 32 56.1214 26.4026 57.5257 19H65.4839C65.5599 19 65.6352 18.9972 65.7097 18.9916C65.7842 18.9972 65.8595 19 65.9354 19H68.4743C69.8786 26.4026 76.3824 32 84.1935 32H110C118.837 32 126 24.8366 126 16C126 7.16344 118.837 0 110 0H84.1936C76.3824 0 69.8786 5.59742 68.4743 13H65.9354C65.8595 13 65.7842 13.0028 65.7097 13.0084C65.6352 13.0028 65.5599 13 65.4839 13H57.5257C56.1214 5.59742 49.6176 0 41.8064 0H16C7.16345 0 0 7.16344 0 16C0 24.8366 7.16346 32 16 32H41.8065ZM84.1936 6H110C115.523 6 120 10.4772 120 16C120 21.5228 115.523 26 110 26H84.1935C79.7159 26 75.9256 23.0571 74.6514 19H83.5483C85.2052 19 86.5483 17.6569 86.5483 16C86.5483 14.3431 85.2052 13 83.5483 13H74.6514C75.9256 8.9429 79.7159 6 84.1936 6Z" fill="white"/>
</svg>
