<svg width="256" height="256" viewBox="0 0 256 256" fill="none" xmlns="http://www.w3.org/2000/svg">
<circle cx="128" cy="128" r="128" fill="#63C1BC"/>
<path d="M203.79 72.6391C204.344 72.7257 204.719 73.2512 204.62 73.8034L199.071 104.787C198.093 110.244 196.522 115.578 194.384 120.693L184.637 144.015C182.092 150.105 178.687 155.798 174.525 160.92L164.285 173.523C159.71 179.154 154.505 184.242 148.772 188.688L128.613 204.322C128.252 204.601 127.748 204.601 127.387 204.322L107.228 188.688C101.495 184.242 96.2902 179.154 91.7153 173.523L80.918 160.234C77.1225 155.563 73.9544 150.415 71.4947 144.921L61.4635 122.518C58.6346 116.2 56.6821 109.525 55.6602 102.679L51.3468 73.7792C51.2657 73.2356 51.6384 72.7284 52.1815 72.6436L82.2678 67.9426C87.1398 67.1813 91.9074 65.8596 96.4758 64.0037L125.742 52.1143C127.19 51.5261 128.81 51.5261 130.258 52.1143L159.525 64.0037C164.093 65.8596 168.861 67.1813 173.733 67.9426L203.79 72.6391Z" fill="white" stroke="white"/>
</svg>
