<svg width="256" height="256" viewBox="0 0 256 256" fill="none" xmlns="http://www.w3.org/2000/svg">
<circle cx="128" cy="128" r="128" fill="#953E3E"/>
<path d="M129.924 164.625L124.599 159.3L199.386 100.549C201.397 98.9695 203.038 95.8544 203.206 93.3025L205.469 58.7251C205.57 57.178 205.022 55.6847 203.965 54.6277C202.908 53.5708 201.415 53.0231 199.868 53.1243L165.291 55.3869C162.739 55.5542 159.624 57.1966 158.044 59.2069L99.293 133.993L93.9681 128.668C91.4044 126.105 87.2327 126.105 84.6689 128.668L78.8831 134.454C76.3194 137.018 76.3194 141.19 78.8831 143.753L90.1956 155.066L80.0946 165.167C74.9245 164.233 69.3938 165.757 65.4056 169.745C58.9426 176.208 58.9426 186.724 65.4056 193.187C71.8685 199.65 82.3843 199.65 88.8473 193.187C92.8356 189.198 94.3591 183.668 93.4253 178.498L103.526 168.397L114.839 179.709C117.403 182.273 121.574 182.273 124.138 179.709L129.924 173.923C132.488 171.36 132.488 167.189 129.924 164.625Z" fill="white"/>
</svg>
