<svg width="256" height="256" viewBox="0 0 256 256" fill="none" xmlns="http://www.w3.org/2000/svg">
<circle cx="128" cy="128" r="128" fill="#6378C1"/>
<path fill-rule="evenodd" clip-rule="evenodd" d="M150.709 53.9519V92.0169C170.286 99.4135 185.213 116.128 190.205 136.776H65.7875C70.7795 116.128 85.9562 99.4138 105.533 92.0173V53.9522H99.7609C96.6421 53.9522 94.1138 51.4239 94.1138 48.305C94.1138 45.1862 96.6424 42.6578 99.7609 42.6578H156.231C159.35 42.6578 161.879 45.1858 161.879 48.3047C161.879 51.4236 159.35 53.9519 156.231 53.9519H150.709ZM120.467 119.834C120.467 122.953 122.995 125.482 126.114 125.482C129.232 125.482 131.761 122.953 131.761 119.834C131.761 116.716 129.232 114.187 126.114 114.187C122.995 114.187 120.467 116.716 120.467 119.834ZM64.1475 148.075H191.853L191.856 148.141C191.928 149.368 192 150.595 192 151.84C192 187.186 163.346 215.84 128 215.84C92.6533 215.84 64 187.186 64 151.84C64 150.595 64.0718 149.368 64.1436 148.141L64.1475 148.075ZM97.8821 165.016C97.8821 168.135 100.411 170.663 103.529 170.663C106.648 170.663 109.176 168.135 109.176 165.016C109.176 161.897 106.648 159.369 103.529 159.369C100.41 159.369 97.8821 161.897 97.8821 165.016ZM120.471 176.31C120.471 185.667 128.055 193.252 137.412 193.252C146.768 193.252 154.353 185.667 154.353 176.31C154.353 166.954 146.768 159.369 137.412 159.369C128.055 159.369 120.471 166.954 120.471 176.31Z" fill="white"/>
</svg>
