<svg width="33" height="57" viewBox="0 0 33 57" fill="none" xmlns="http://www.w3.org/2000/svg">
<path d="M31.5025 28.3566C32.0061 28.4353 32.3465 28.9128 32.2566 29.4145L31.6501 32.8009C31.1651 35.5088 30.3852 38.1556 29.3245 40.6939L28.8418 41.8487C27.8991 44.1046 26.6376 46.2135 25.0958 48.111V48.111C23.4011 50.1968 21.4731 52.0816 19.3494 53.7286L16.8266 55.685C16.5875 55.8704 16.2533 55.8704 16.0142 55.685L13.6328 53.8382C11.4152 52.1184 9.40185 50.1502 7.63219 47.9722V47.9722C6.16398 46.1652 4.93853 44.1738 3.98703 42.0488L3.67666 41.3556C2.3454 38.3825 1.42659 35.2414 0.945711 32.0195L0.529069 29.228C0.468938 28.8251 0.745211 28.4492 1.14766 28.3864L1.99828 28.2535C6.2654 27.5867 10.4412 26.4291 14.4425 24.8035V24.8035C15.7108 24.2883 17.13 24.2883 18.3983 24.8035V24.8035C22.3996 26.4291 26.5754 27.5867 30.8425 28.2535L31.5025 28.3566Z" fill="white" stroke="white"/>
<path d="M15.759 13.896C15.647 13.896 15.511 13.832 15.351 13.704C15.207 13.576 15.063 13.392 14.919 13.152C14.775 12.896 14.639 12.592 14.511 12.24C14.383 11.872 14.319 11.464 14.319 11.016C14.319 10.424 14.559 9.92 15.039 9.504C15.519 9.072 16.247 8.632 17.223 8.184C17.735 7.96 18.119 7.712 18.375 7.44C18.647 7.152 18.783 6.784 18.783 6.336C18.783 5.92 18.607 5.616 18.255 5.424C17.903 5.232 17.519 5.136 17.103 5.136C16.719 5.136 16.431 5.176 16.239 5.256C16.047 5.32 15.895 5.376 15.783 5.424C15.671 5.472 15.543 5.512 15.399 5.544C15.271 5.576 15.119 5.592 14.943 5.592C14.703 5.592 14.463 5.472 14.223 5.232C13.999 4.976 13.807 4.68 13.647 4.344C13.503 3.992 13.431 3.672 13.431 3.384C13.431 3.08 13.607 2.8 13.959 2.544C14.327 2.272 14.751 2.136 15.231 2.136C15.919 2.136 16.575 2.312 17.199 2.664C17.823 3 18.407 3.456 18.951 4.032C19.319 4.416 19.631 4.832 19.887 5.28C20.143 5.728 20.343 6.192 20.487 6.672C20.631 7.152 20.703 7.632 20.703 8.112C20.703 8.768 20.575 9.288 20.319 9.672C20.079 10.056 19.807 10.32 19.503 10.464C19.279 10.576 19.047 10.704 18.807 10.848C18.583 10.976 18.343 11.112 18.087 11.256C17.847 11.4 17.591 11.544 17.319 11.688C16.967 11.864 16.727 12.064 16.599 12.288C16.471 12.496 16.375 12.84 16.311 13.32C16.295 13.512 16.239 13.656 16.143 13.752C16.047 13.848 15.919 13.896 15.759 13.896ZM15.663 18.336C15.167 18.336 14.743 18.16 14.391 17.808C14.039 17.456 13.863 17.032 13.863 16.536C13.863 16.04 14.039 15.616 14.391 15.264C14.743 14.912 15.167 14.736 15.663 14.736C16.159 14.736 16.583 14.912 16.935 15.264C17.287 15.616 17.463 16.04 17.463 16.536C17.463 17.032 17.287 17.456 16.935 17.808C16.583 18.16 16.159 18.336 15.663 18.336Z" fill="#EB621D"/>
</svg>
