<svg width="31" height="57" viewBox="0 0 31 57" fill="none" xmlns="http://www.w3.org/2000/svg">
<path d="M14.6039 47.6583L13.7344 46.7887L25.9474 37.1944C26.2758 36.9364 26.5439 36.4277 26.5712 36.011L26.9408 30.3643C26.9573 30.1117 26.8678 29.8678 26.6952 29.6952C26.5226 29.5226 26.2788 29.4332 26.0262 29.4497L20.3795 29.8192C19.9627 29.8465 19.454 30.1147 19.1961 30.443L9.60175 42.656L8.73216 41.7864C8.31348 41.3678 7.63223 41.3678 7.21356 41.7864L6.26871 42.7313C5.85004 43.15 5.85004 43.8312 6.26871 44.2499L8.11609 46.0973L6.46655 47.7468C5.62224 47.5943 4.71905 47.8431 4.06775 48.4944C3.01232 49.5499 3.01232 51.2672 4.06775 52.3226C5.12319 53.378 6.84047 53.378 7.89591 52.3226C8.54721 51.6713 8.79601 50.7681 8.64351 49.9238L10.2931 48.2742L12.1404 50.1216C12.5591 50.5403 13.2404 50.5403 13.659 50.1216L14.6039 49.1768C15.0227 48.7582 15.0226 48.077 14.6039 47.6583Z" fill="white"/>
<path d="M13.759 13.896C13.647 13.896 13.511 13.832 13.351 13.704C13.207 13.576 13.063 13.392 12.919 13.152C12.775 12.896 12.639 12.592 12.511 12.24C12.383 11.872 12.319 11.464 12.319 11.016C12.319 10.424 12.559 9.92 13.039 9.504C13.519 9.072 14.247 8.632 15.223 8.184C15.735 7.96 16.119 7.712 16.375 7.44C16.647 7.152 16.783 6.784 16.783 6.336C16.783 5.92 16.607 5.616 16.255 5.424C15.903 5.232 15.519 5.136 15.103 5.136C14.719 5.136 14.431 5.176 14.239 5.256C14.047 5.32 13.895 5.376 13.783 5.424C13.671 5.472 13.543 5.512 13.399 5.544C13.271 5.576 13.119 5.592 12.943 5.592C12.703 5.592 12.463 5.472 12.223 5.232C11.999 4.976 11.807 4.68 11.647 4.344C11.503 3.992 11.431 3.672 11.431 3.384C11.431 3.08 11.607 2.8 11.959 2.544C12.327 2.272 12.751 2.136 13.231 2.136C13.919 2.136 14.575 2.312 15.199 2.664C15.823 3 16.407 3.456 16.951 4.032C17.319 4.416 17.631 4.832 17.887 5.28C18.143 5.728 18.343 6.192 18.487 6.672C18.631 7.152 18.703 7.632 18.703 8.112C18.703 8.768 18.575 9.288 18.319 9.672C18.079 10.056 17.807 10.32 17.503 10.464C17.279 10.576 17.047 10.704 16.807 10.848C16.583 10.976 16.343 11.112 16.087 11.256C15.847 11.4 15.591 11.544 15.319 11.688C14.967 11.864 14.727 12.064 14.599 12.288C14.471 12.496 14.375 12.84 14.311 13.32C14.295 13.512 14.239 13.656 14.143 13.752C14.047 13.848 13.919 13.896 13.759 13.896ZM13.663 18.336C13.167 18.336 12.743 18.16 12.391 17.808C12.039 17.456 11.863 17.032 11.863 16.536C11.863 16.04 12.039 15.616 12.391 15.264C12.743 14.912 13.167 14.736 13.663 14.736C14.159 14.736 14.583 14.912 14.935 15.264C15.287 15.616 15.463 16.04 15.463 16.536C15.463 17.032 15.287 17.456 14.935 17.808C14.583 18.16 14.159 18.336 13.663 18.336Z" fill="#EB621D"/>
</svg>
