<svg width="41" height="49" viewBox="0 0 41 49" fill="none" xmlns="http://www.w3.org/2000/svg">
<path fill-rule="evenodd" clip-rule="evenodd" d="M8.98349 17.0308C8.54605 16.8236 8.023 16.9594 7.74167 17.3533L3.38709 23.4497C3.07968 23.8801 3.16055 24.4754 3.57163 24.8082L24.9185 42.089C25.2746 42.3773 25.7188 42.5345 26.1769 42.5345H39.7672C40.4823 42.5345 40.9663 41.8056 40.6888 41.1465L40.3913 40.44C39.1193 37.419 36.6668 35.0498 33.6037 33.8828L31.4954 33.0797C31.1534 32.9494 30.9987 32.5524 31.1624 32.2251C31.6227 31.3044 30.8227 30.257 29.8134 30.4589L29.2669 30.5682C28.9331 30.6349 28.596 30.47 28.4438 30.1656L26.7686 26.8153C26.6296 26.5372 26.6367 26.2085 26.7877 25.9367L27.191 25.2107C27.7076 24.2809 27.0352 23.1382 25.9716 23.1382C25.6714 23.1382 25.4048 22.9461 25.3099 22.6613L23.9794 18.67C23.6174 17.5839 22.4194 17.0228 21.3533 17.4399L19.8785 18.017C16.7986 19.2222 13.3577 19.1028 10.3687 17.687L8.98349 17.0308ZM2.32359 28.0918C1.67199 27.5505 0.68457 28.0139 0.68457 28.861V29.8655C0.68457 30.1555 0.810477 30.4312 1.02964 30.6211L21.9541 48.7557C22.1359 48.9132 22.3684 49 22.609 49H37.5103C38.8773 49 40.0689 48.0696 40.4005 46.7434C40.4788 46.43 40.2418 46.1265 39.9188 46.1265H24.3931C24.1597 46.1265 23.9337 46.0448 23.7541 45.8956L2.32359 28.0918Z" fill="white"/>
<path d="M10 2H32" stroke="#EB621D" stroke-width="3" stroke-linecap="round"/>
</svg>
