<svg width="26" height="49" viewBox="0 0 26 49" fill="none" xmlns="http://www.w3.org/2000/svg">
<path fill-rule="evenodd" clip-rule="evenodd" d="M16.7913 18.7929V25.8266C20.4087 27.1934 23.1671 30.2819 24.0894 34.0974H1.0993C2.02174 30.282 4.82612 27.1935 8.44351 25.8267V18.7929H7.37701C6.80069 18.7929 6.3335 18.3258 6.3335 17.7494C6.3335 17.1731 6.80075 16.7059 7.37701 16.7059H17.8118C18.3881 16.7059 18.8553 17.1731 18.8553 17.7494C18.8553 18.3257 18.388 18.7929 17.8118 18.7929H16.7913ZM11.2031 30.9669C11.2031 31.5432 11.6703 32.0104 12.2466 32.0104C12.8228 32.0104 13.29 31.5431 13.2901 30.9669C13.2901 30.3905 12.8228 29.9233 12.2466 29.9233C11.6703 29.9233 11.2031 30.3906 11.2031 30.9669ZM0.795317 36.1841H24.393L24.3937 36.1963C24.407 36.423 24.4203 36.6497 24.4203 36.8798C24.4203 43.4111 19.1255 48.7059 12.5942 48.7059C6.06271 48.7059 0.768066 43.4111 0.768066 36.8797C0.768066 36.6497 0.781336 36.423 0.794603 36.1963L0.795317 36.1841ZM7.0289 39.3145C7.0289 39.8909 7.49615 40.358 8.0724 40.358C8.64872 40.358 9.1159 39.8909 9.1159 39.3145C9.1159 38.7382 8.64865 38.271 8.0724 38.271C7.49609 38.271 7.0289 38.7382 7.0289 39.3145ZM11.2028 41.4015C11.2028 43.1304 12.6044 44.5319 14.3333 44.5319C16.0622 44.5319 17.4637 43.1304 17.4637 41.4015C17.4637 39.6725 16.0622 38.271 14.3333 38.271C12.6044 38.271 11.2028 39.6725 11.2028 41.4015Z" fill="white"/>
<path d="M2 2H24" stroke="#EB621D" stroke-width="3" stroke-linecap="round"/>
</svg>
