<svg width="33" height="60" viewBox="0 0 33 60" fill="none" xmlns="http://www.w3.org/2000/svg">
<path d="M31.5025 31.3566C32.0061 31.4353 32.3465 31.9128 32.2566 32.4145L31.6501 35.8009C31.1651 38.5088 30.3852 41.1556 29.3245 43.6939L28.8418 44.8487C27.8991 47.1046 26.6376 49.2135 25.0958 51.111V51.111C23.4011 53.1968 21.4731 55.0816 19.3494 56.7286L16.8266 58.685C16.5875 58.8704 16.2533 58.8704 16.0142 58.685L13.6328 56.8382C11.4152 55.1184 9.40185 53.1502 7.63219 50.9722V50.9722C6.16398 49.1652 4.93853 47.1738 3.98703 45.0488L3.67666 44.3556C2.3454 41.3825 1.42659 38.2414 0.945711 35.0195L0.529069 32.228C0.468938 31.8251 0.745211 31.4492 1.14766 31.3864L1.99828 31.2535C6.2654 30.5867 10.4412 29.4291 14.4425 27.8035V27.8035C15.7108 27.2883 17.13 27.2883 18.3983 27.8035V27.8035C22.3996 29.4291 26.5754 30.5867 30.8425 31.2535L31.5025 31.3566Z" fill="white" stroke="white"/>
<path d="M14.9393 22.0607C15.5251 22.6464 16.4749 22.6464 17.0607 22.0607L26.6066 12.5147C27.1924 11.9289 27.1924 10.9792 26.6066 10.3934C26.0208 9.80761 25.0711 9.80761 24.4853 10.3934L16 18.8787L7.51472 10.3934C6.92893 9.80761 5.97919 9.80761 5.3934 10.3934C4.80761 10.9792 4.80761 11.9289 5.3934 12.5147L14.9393 22.0607ZM14.5 20V21H17.5V20H14.5Z" fill="#EB621D"/>
<path d="M14.9393 13.0607C15.5251 13.6464 16.4749 13.6464 17.0607 13.0607L26.6066 3.51472C27.1924 2.92893 27.1924 1.97918 26.6066 1.3934C26.0208 0.807612 25.0711 0.807612 24.4853 1.3934L16 9.87868L7.51472 1.3934C6.92893 0.807612 5.97918 0.807612 5.3934 1.3934C4.80761 1.97918 4.80761 2.92893 5.3934 3.51472L14.9393 13.0607ZM14.5 11V12H17.5V11H14.5Z" fill="#EB621D"/>
</svg>
