<svg width="41" height="50" viewBox="0 0 41 50" fill="none" xmlns="http://www.w3.org/2000/svg">
<path fill-rule="evenodd" clip-rule="evenodd" d="M8.98349 18.0308C8.54605 17.8236 8.023 17.9594 7.74167 18.3533L3.38709 24.4497C3.07968 24.8801 3.16055 25.4754 3.57163 25.8082L24.9185 43.089C25.2746 43.3773 25.7188 43.5345 26.1769 43.5345H39.7672C40.4823 43.5345 40.9663 42.8056 40.6888 42.1465L40.3913 41.44C39.1193 38.419 36.6668 36.0498 33.6037 34.8828L31.4954 34.0797C31.1534 33.9494 30.9987 33.5524 31.1624 33.2251C31.6227 32.3044 30.8227 31.257 29.8134 31.4589L29.2669 31.5682C28.9331 31.6349 28.596 31.47 28.4438 31.1656L26.7686 27.8153C26.6296 27.5372 26.6367 27.2085 26.7877 26.9367L27.191 26.2107C27.7076 25.2809 27.0352 24.1382 25.9716 24.1382C25.6714 24.1382 25.4048 23.9461 25.3099 23.6613L23.9794 19.67C23.6174 18.5839 22.4194 18.0228 21.3533 18.4399L19.8785 19.017C16.7986 20.2222 13.3577 20.1028 10.3687 18.687L8.98349 18.0308ZM2.32359 29.0918C1.67199 28.5505 0.68457 29.0139 0.68457 29.861V30.8655C0.68457 31.1555 0.810477 31.4312 1.02964 31.6211L21.9541 49.7557C22.1359 49.9132 22.3684 50 22.609 50H37.5103C38.8773 50 40.0689 49.0696 40.4005 47.7434C40.4788 47.43 40.2418 47.1265 39.9188 47.1265H24.3931C24.1597 47.1265 23.9337 47.0448 23.7541 46.8956L2.32359 29.0918Z" fill="white"/>
<path d="M22.0607 0.93934C21.4749 0.353553 20.5251 0.353553 19.9393 0.93934L10.3934 10.4853C9.80761 11.0711 9.80761 12.0208 10.3934 12.6066C10.9792 13.1924 11.9289 13.1924 12.5147 12.6066L21 4.12132L29.4853 12.6066C30.0711 13.1924 31.0208 13.1924 31.6066 12.6066C32.1924 12.0208 32.1924 11.0711 31.6066 10.4853L22.0607 0.93934ZM22.5 3V2H19.5V3H22.5Z" fill="#EB621D"/>
</svg>
