<svg width="40" height="61" viewBox="0 0 40 61" fill="none" xmlns="http://www.w3.org/2000/svg">
<path d="M29.4429 29C24.0632 29 20.6503 34.9973 19.8426 34.9973C19.1364 34.9973 15.863 29 10.2419 29C4.7744 29 0.310096 33.5091 0.0178526 38.9691C-0.146931 42.0534 0.847204 44.4004 2.24856 46.5267C5.04758 50.7746 17.2868 61 19.8605 61C22.4897 61 34.6186 50.8114 37.4361 46.5269C38.8406 44.391 39.8317 42.0535 39.6668 38.9692C39.3747 33.5091 34.9106 29 29.4429 29Z" fill="white"/>
<path d="M18.9393 22.0607C19.5251 22.6464 20.4749 22.6464 21.0607 22.0607L30.6066 12.5147C31.1924 11.9289 31.1924 10.9792 30.6066 10.3934C30.0208 9.80761 29.0711 9.80761 28.4853 10.3934L20 18.8787L11.5147 10.3934C10.9289 9.80761 9.97918 9.80761 9.3934 10.3934C8.80761 10.9792 8.80761 11.9289 9.3934 12.5147L18.9393 22.0607ZM18.5 20V21H21.5V20H18.5Z" fill="#EB621D"/>
<path d="M18.9393 13.0607C19.5251 13.6464 20.4749 13.6464 21.0607 13.0607L30.6066 3.51472C31.1924 2.92893 31.1924 1.97918 30.6066 1.3934C30.0208 0.807612 29.0711 0.807612 28.4853 1.3934L20 9.87868L11.5147 1.3934C10.9289 0.807612 9.97918 0.807612 9.3934 1.3934C8.80761 1.97918 8.80761 2.92893 9.3934 3.51472L18.9393 13.0607ZM18.5 11V12H21.5V11H18.5Z" fill="#EB621D"/>
</svg>
