<svg width="256" height="256" viewBox="0 0 256 256" fill="none" xmlns="http://www.w3.org/2000/svg">
<circle cx="128" cy="128" r="128" fill="#63C16C"/>
<path fill-rule="evenodd" clip-rule="evenodd" d="M74.8635 62.9939C74.4261 62.7867 73.903 62.9226 73.6217 63.3164L52.1971 93.3109C51.8897 93.7413 51.9705 94.3366 52.3816 94.6694L145.423 169.988C145.779 170.277 146.223 170.434 146.681 170.434H210.343C211.059 170.434 211.543 169.705 211.265 169.046L201.864 146.717C200.592 143.696 198.139 141.327 195.076 140.16L169.463 130.403C168.911 130.192 168.66 129.55 168.925 129.021L172.591 121.69C173.335 120.201 172.042 118.508 170.41 118.834L160.197 120.877C159.754 120.965 159.308 120.747 159.106 120.343L150.7 103.532C150.553 103.237 150.56 102.888 150.721 102.599L156.3 92.5567C157.04 91.2236 156.076 89.5854 154.551 89.5854H146.694C146.263 89.5854 145.881 89.31 145.745 88.9016L137.656 64.6331C137.294 63.5471 136.095 62.9859 135.029 63.4031L107.381 74.2222C104.301 75.4274 100.86 75.308 97.8708 73.8921L74.8635 62.9939ZM44.3014 105.913C43.6498 105.372 42.6624 105.835 42.6624 106.682V119.067C42.6624 119.357 42.7883 119.633 43.0074 119.823L132.212 197.133C132.394 197.291 132.626 197.377 132.867 197.377H201.172C203.925 197.377 206.325 195.504 206.993 192.833L208.54 186.642C208.698 186.011 208.221 185.4 207.57 185.4H140.341C140.108 185.4 139.882 185.318 139.702 185.169L44.3014 105.913Z" fill="white"/>
</svg>
