<svg width="40" height="50" viewBox="0 0 40 50" fill="none" xmlns="http://www.w3.org/2000/svg">
<path d="M29.4429 18C24.0632 18 20.6503 23.9973 19.8426 23.9973C19.1364 23.9973 15.863 18 10.2419 18C4.7744 18 0.310096 22.5091 0.0178526 27.9691C-0.146931 31.0534 0.847204 33.4004 2.24856 35.5267C5.04758 39.7746 17.2868 50 19.8605 50C22.4897 50 34.6186 39.8114 37.4361 35.5269C38.8406 33.391 39.8317 31.0535 39.6668 27.9692C39.3747 22.5091 34.9106 18 29.4429 18Z" fill="white"/>
<path d="M21.0607 0.93934C20.4749 0.353553 19.5251 0.353553 18.9393 0.93934L9.3934 10.4853C8.80761 11.0711 8.80761 12.0208 9.3934 12.6066C9.97918 13.1924 10.9289 13.1924 11.5147 12.6066L20 4.12132L28.4853 12.6066C29.0711 13.1924 30.0208 13.1924 30.6066 12.6066C31.1924 12.0208 31.1924 11.0711 30.6066 10.4853L21.0607 0.93934ZM21.5 3L21.5 2L18.5 2L18.5 3L21.5 3Z" fill="#EB621D"/>
</svg>
