<svg width="25" height="52" viewBox="0 0 25 52" fill="none" xmlns="http://www.w3.org/2000/svg">
<path fill-rule="evenodd" clip-rule="evenodd" d="M16.7913 21.7929V28.8266C20.4087 30.1934 23.1671 33.2819 24.0894 37.0974H1.0993C2.02174 33.282 4.82612 30.1935 8.44351 28.8267V21.7929H7.37701C6.80069 21.7929 6.3335 21.3258 6.3335 20.7494C6.3335 20.1731 6.80075 19.7059 7.37701 19.7059H17.8118C18.3881 19.7059 18.8553 20.1731 18.8553 20.7494C18.8553 21.3257 18.388 21.7929 17.8118 21.7929H16.7913ZM11.2031 33.9669C11.2031 34.5432 11.6703 35.0104 12.2466 35.0104C12.8228 35.0104 13.29 34.5431 13.2901 33.9669C13.2901 33.3905 12.8228 32.9233 12.2466 32.9233C11.6703 32.9233 11.2031 33.3906 11.2031 33.9669ZM0.795317 39.1841H24.393L24.3937 39.1963C24.407 39.423 24.4203 39.6497 24.4203 39.8798C24.4203 46.4111 19.1255 51.7059 12.5942 51.7059C6.06271 51.7059 0.768066 46.4111 0.768066 39.8797C0.768066 39.6497 0.781336 39.423 0.794603 39.1963L0.795317 39.1841ZM7.0289 42.3145C7.0289 42.8909 7.49615 43.358 8.0724 43.358C8.64872 43.358 9.1159 42.8909 9.1159 42.3145C9.1159 41.7382 8.64865 41.271 8.0724 41.271C7.49609 41.271 7.0289 41.7382 7.0289 42.3145ZM11.2028 44.4015C11.2028 46.1304 12.6044 47.5319 14.3333 47.5319C16.0622 47.5319 17.4637 46.1304 17.4637 44.4015C17.4637 42.6725 16.0622 41.271 14.3333 41.271C12.6044 41.271 11.2028 42.6725 11.2028 44.4015Z" fill="white"/>
<path d="M11.9393 13.0607C12.5251 13.6464 13.4749 13.6464 14.0607 13.0607L23.6066 3.51472C24.1924 2.92893 24.1924 1.97918 23.6066 1.3934C23.0208 0.807612 22.0711 0.807612 21.4853 1.3934L13 9.87868L4.51472 1.3934C3.92893 0.807612 2.97918 0.807612 2.3934 1.3934C1.80761 1.97918 1.80761 2.92893 2.3934 3.51472L11.9393 13.0607ZM11.5 11V12H14.5V11H11.5Z" fill="#EB621D"/>
</svg>
