<svg width="31" height="44" viewBox="0 0 31 44" fill="none" xmlns="http://www.w3.org/2000/svg">
<path d="M14.6518 34.6583L13.7822 33.7887L25.9952 24.1944C26.3236 23.9364 26.5917 23.4277 26.619 23.011L26.9886 17.3643C27.0052 17.1117 26.9157 16.8678 26.7431 16.6952C26.5705 16.5226 26.3266 16.4332 26.074 16.4497L20.4273 16.8192C20.0106 16.8465 19.5019 17.1147 19.244 17.443L9.6496 29.656L8.78001 28.7864C8.36134 28.3678 7.68008 28.3678 7.26141 28.7864L6.31656 29.7313C5.89789 30.15 5.89789 30.8312 6.31656 31.2499L8.16395 33.0973L6.5144 34.7468C5.67009 34.5943 4.7669 34.8431 4.1156 35.4944C3.06017 36.5499 3.06017 38.2672 4.1156 39.3226C5.17104 40.378 6.88832 40.378 7.94376 39.3226C8.59506 38.6713 8.84386 37.7681 8.69137 36.9238L10.3409 35.2742L12.1883 37.1216C12.607 37.5403 13.2882 37.5403 13.7069 37.1216L14.6517 36.1768C15.0705 35.7582 15.0705 35.077 14.6518 34.6583Z" fill="white"/>
<path d="M4 2H26" stroke="#EB621D" stroke-width="3" stroke-linecap="round"/>
</svg>
