<svg width="33" height="53" viewBox="0 0 33 53" fill="none" xmlns="http://www.w3.org/2000/svg">
<path d="M31.5025 24.3566C32.0061 24.4353 32.3465 24.9128 32.2566 25.4145L31.6501 28.8009C31.1651 31.5088 30.3852 34.1556 29.3245 36.6939L28.8418 37.8487C27.8991 40.1046 26.6376 42.2135 25.0958 44.111C23.4011 46.1968 21.4731 48.0816 19.3494 49.7286L16.8266 51.685C16.5875 51.8704 16.2533 51.8704 16.0142 51.685L13.6328 49.8382C11.4152 48.1184 9.40184 46.1502 7.63219 43.9722C6.16398 42.1652 4.93853 40.1738 3.98703 38.0488L3.67666 37.3556C2.3454 34.3825 1.42659 31.2414 0.945711 28.0195L0.529069 25.228C0.468938 24.8251 0.745211 24.4492 1.14766 24.3864L1.99828 24.2535C6.2654 23.5867 10.4412 22.4291 14.4425 20.8035C15.7108 20.2883 17.13 20.2883 18.3983 20.8035C22.3996 22.4291 26.5754 23.5867 30.8425 24.2535L31.5025 24.3566Z" fill="white" stroke="white"/>
<path d="M17.0607 0.93934C16.4749 0.353553 15.5251 0.353553 14.9393 0.93934L5.3934 10.4853C4.80761 11.0711 4.80761 12.0208 5.3934 12.6066C5.97918 13.1924 6.92893 13.1924 7.51472 12.6066L16 4.12132L24.4853 12.6066C25.0711 13.1924 26.0208 13.1924 26.6066 12.6066C27.1924 12.0208 27.1924 11.0711 26.6066 10.4853L17.0607 0.93934ZM17.5 3L17.5 2L14.5 2L14.5 3L17.5 3Z" fill="#EB621D"/>
</svg>
