<svg width="25" height="58" viewBox="0 0 25 58" fill="none" xmlns="http://www.w3.org/2000/svg">
<path fill-rule="evenodd" clip-rule="evenodd" d="M16.7913 27.7929V34.8266C20.4087 36.1934 23.1671 39.2819 24.0894 43.0974H1.0993C2.02174 39.282 4.82612 36.1935 8.44351 34.8267V27.7929H7.37701C6.80069 27.7929 6.3335 27.3258 6.3335 26.7494C6.3335 26.1731 6.80075 25.7059 7.37701 25.7059H17.8118C18.3881 25.7059 18.8553 26.1731 18.8553 26.7494C18.8553 27.3257 18.388 27.7929 17.8118 27.7929H16.7913ZM11.2031 39.9669C11.2031 40.5432 11.6703 41.0104 12.2466 41.0104C12.8228 41.0104 13.29 40.5431 13.2901 39.9669C13.2901 39.3905 12.8228 38.9233 12.2466 38.9233C11.6703 38.9233 11.2031 39.3906 11.2031 39.9669ZM0.795317 45.1841H24.393L24.3937 45.1963C24.407 45.423 24.4203 45.6497 24.4203 45.8798C24.4203 52.4111 19.1255 57.7059 12.5942 57.7059C6.06271 57.7059 0.768066 52.4111 0.768066 45.8797C0.768066 45.6497 0.781336 45.423 0.794603 45.1963L0.795317 45.1841ZM7.0289 48.3145C7.0289 48.8909 7.49615 49.358 8.0724 49.358C8.64872 49.358 9.1159 48.8909 9.1159 48.3145C9.1159 47.7382 8.64865 47.271 8.0724 47.271C7.49609 47.271 7.0289 47.7382 7.0289 48.3145ZM11.2028 50.4015C11.2028 52.1304 12.6044 53.5319 14.3333 53.5319C16.0622 53.5319 17.4637 52.1304 17.4637 50.4015C17.4637 48.6725 16.0622 47.271 14.3333 47.271C12.6044 47.271 11.2028 48.6725 11.2028 50.4015Z" fill="white"/>
<path d="M14.0607 9.93934C13.4749 9.35355 12.5251 9.35355 11.9393 9.93934L2.3934 19.4853C1.80761 20.0711 1.80761 21.0208 2.3934 21.6066C2.97918 22.1924 3.92893 22.1924 4.51472 21.6066L13 13.1213L21.4853 21.6066C22.0711 22.1924 23.0208 22.1924 23.6066 21.6066C24.1924 21.0208 24.1924 20.0711 23.6066 19.4853L14.0607 9.93934ZM14.5 12V11H11.5V12H14.5Z" fill="#EB621D"/>
<path d="M14.0607 0.93934C13.4749 0.353553 12.5251 0.353553 11.9393 0.93934L2.3934 10.4853C1.80761 11.0711 1.80761 12.0208 2.3934 12.6066C2.97918 13.1924 3.92893 13.1924 4.51472 12.6066L13 4.12132L21.4853 12.6066C22.0711 13.1924 23.0208 13.1924 23.6066 12.6066C24.1924 12.0208 24.1924 11.0711 23.6066 10.4853L14.0607 0.93934ZM14.5 3V2H11.5V3H14.5Z" fill="#EB621D"/>
</svg>
