<svg width="31" height="60" viewBox="0 0 31 60" fill="none" xmlns="http://www.w3.org/2000/svg">
<path d="M14.6039 50.6583L13.7344 49.7887L25.9474 40.1944C26.2758 39.9364 26.5439 39.4277 26.5712 39.011L26.9408 33.3643C26.9573 33.1117 26.8678 32.8678 26.6952 32.6952C26.5226 32.5226 26.2788 32.4332 26.0262 32.4497L20.3795 32.8192C19.9627 32.8465 19.454 33.1147 19.1961 33.443L9.60175 45.656L8.73216 44.7864C8.31348 44.3678 7.63223 44.3678 7.21356 44.7864L6.26871 45.7313C5.85004 46.15 5.85004 46.8312 6.26871 47.2499L8.11609 49.0973L6.46655 50.7468C5.62224 50.5943 4.71905 50.8431 4.06775 51.4944C3.01232 52.5499 3.01232 54.2672 4.06775 55.3226C5.12319 56.378 6.84047 56.378 7.89591 55.3226C8.54721 54.6713 8.79601 53.7681 8.64351 52.9238L10.2931 51.2742L12.1404 53.1216C12.5591 53.5403 13.2404 53.5403 13.659 53.1216L14.6039 52.1768C15.0227 51.7582 15.0226 51.077 14.6039 50.6583Z" fill="white"/>
<path d="M16.0607 9.93934C15.4749 9.35355 14.5251 9.35355 13.9393 9.93934L4.3934 19.4853C3.80761 20.0711 3.80761 21.0208 4.3934 21.6066C4.97918 22.1924 5.92893 22.1924 6.51472 21.6066L15 13.1213L23.4853 21.6066C24.0711 22.1924 25.0208 22.1924 25.6066 21.6066C26.1924 21.0208 26.1924 20.0711 25.6066 19.4853L16.0607 9.93934ZM16.5 12L16.5 11L13.5 11L13.5 12L16.5 12Z" fill="#EB621D"/>
<path d="M16.0607 0.93934C15.4749 0.353553 14.5251 0.353553 13.9393 0.93934L4.3934 10.4853C3.80761 11.0711 3.80761 12.0208 4.3934 12.6066C4.97918 13.1924 5.92893 13.1924 6.51472 12.6066L15 4.12132L23.4853 12.6066C24.0711 13.1924 25.0208 13.1924 25.6066 12.6066C26.1924 12.0208 26.1924 11.0711 25.6066 10.4853L16.0607 0.93934ZM16.5 3L16.5 2L13.5 2L13.5 3L16.5 3Z" fill="#EB621D"/>
</svg>
