<svg width="40" height="52" viewBox="0 0 40 52" fill="none" xmlns="http://www.w3.org/2000/svg">
<path d="M29.4429 20C24.0632 20 20.6503 25.9973 19.8426 25.9973C19.1364 25.9973 15.863 20 10.2419 20C4.7744 20 0.310096 24.5091 0.0178526 29.9691C-0.146931 33.0534 0.847204 35.4004 2.24856 37.5267C5.04758 41.7746 17.2868 52 19.8605 52C22.4897 52 34.6186 41.8114 37.4361 37.5269C38.8406 35.391 39.8317 33.0535 39.6668 29.9692C39.3747 24.5091 34.9106 20 29.4429 20Z" fill="white"/>
<path d="M18.9393 13.0607C19.5251 13.6464 20.4749 13.6464 21.0607 13.0607L30.6066 3.51472C31.1924 2.92893 31.1924 1.97919 30.6066 1.3934C30.0208 0.807611 29.0711 0.807611 28.4853 1.3934L20 9.87868L11.5147 1.3934C10.9289 0.807611 9.97919 0.807611 9.3934 1.3934C8.80761 1.97919 8.80761 2.92893 9.3934 3.51472L18.9393 13.0607ZM18.5 11V12H21.5V11H18.5Z" fill="#EB621D"/>
</svg>
