<svg width="41" height="51" viewBox="0 0 41 51" fill="none" xmlns="http://www.w3.org/2000/svg">
<path fill-rule="evenodd" clip-rule="evenodd" d="M8.98349 19.0308C8.54605 18.8236 8.023 18.9594 7.74167 19.3533L3.38709 25.4497C3.07968 25.8801 3.16055 26.4754 3.57163 26.8082L24.9185 44.089C25.2746 44.3773 25.7188 44.5345 26.1769 44.5345H39.7672C40.4823 44.5345 40.9663 43.8056 40.6888 43.1465L40.3913 42.44C39.1193 39.419 36.6668 37.0498 33.6037 35.8828L31.4954 35.0797C31.1534 34.9494 30.9987 34.5524 31.1624 34.2251C31.6227 33.3044 30.8227 32.257 29.8134 32.4589L29.2669 32.5682C28.9331 32.6349 28.596 32.47 28.4438 32.1656L26.7686 28.8153C26.6296 28.5372 26.6367 28.2085 26.7877 27.9367L27.191 27.2107C27.7076 26.2809 27.0352 25.1382 25.9716 25.1382C25.6714 25.1382 25.4048 24.9461 25.3099 24.6613L23.9794 20.67C23.6174 19.5839 22.4194 19.0228 21.3533 19.4399L19.8785 20.017C16.7986 21.2222 13.3577 21.1028 10.3687 19.687L8.98349 19.0308ZM2.32359 30.0918C1.67199 29.5505 0.68457 30.0139 0.68457 30.861V31.8655C0.68457 32.1555 0.810477 32.4312 1.02964 32.6211L21.9541 50.7557C22.1359 50.9132 22.3684 51 22.609 51H37.5103C38.8773 51 40.0689 50.0696 40.4005 48.7434C40.4788 48.43 40.2418 48.1265 39.9188 48.1265H24.3931C24.1597 48.1265 23.9337 48.0448 23.7541 47.8956L2.32359 30.0918Z" fill="white"/>
<path d="M19.9393 13.0607C20.5251 13.6464 21.4749 13.6464 22.0607 13.0607L31.6066 3.51472C32.1924 2.92893 32.1924 1.97918 31.6066 1.3934C31.0208 0.807612 30.0711 0.807612 29.4853 1.3934L21 9.87868L12.5147 1.3934C11.9289 0.807612 10.9792 0.807612 10.3934 1.3934C9.80761 1.97918 9.80761 2.92893 10.3934 3.51472L19.9393 13.0607ZM19.5 11V12H22.5V11H19.5Z" fill="#EB621D"/>
</svg>
