<svg width="33" height="51" viewBox="0 0 33 51" fill="none" xmlns="http://www.w3.org/2000/svg">
<path d="M31.5025 22.3566C32.0061 22.4353 32.3465 22.9128 32.2566 23.4145L31.6501 26.8009C31.1651 29.5088 30.3852 32.1556 29.3245 34.6939L28.8418 35.8487C27.8991 38.1046 26.6376 40.2135 25.0958 42.111V42.111C23.4011 44.1968 21.4731 46.0816 19.3494 47.7286L16.8266 49.685C16.5875 49.8704 16.2533 49.8704 16.0142 49.685L13.6328 47.8382C11.4152 46.1184 9.40185 44.1502 7.63219 41.9722V41.9722C6.16398 40.1652 4.93853 38.1738 3.98703 36.0488L3.67666 35.3556C2.3454 32.3825 1.42659 29.2414 0.945711 26.0195L0.529069 23.228C0.468938 22.8251 0.745211 22.4492 1.14766 22.3864L1.99828 22.2535C6.2654 21.5867 10.4412 20.4291 14.4425 18.8035V18.8035C15.7108 18.2883 17.13 18.2883 18.3983 18.8035V18.8035C22.3996 20.4291 26.5754 21.5867 30.8425 22.2535L31.5025 22.3566Z" fill="white" stroke="white"/>
<path d="M14.9393 13.0607C15.5251 13.6464 16.4749 13.6464 17.0607 13.0607L26.6066 3.51472C27.1924 2.92893 27.1924 1.97919 26.6066 1.3934C26.0208 0.807611 25.0711 0.807611 24.4853 1.3934L16 9.87868L7.51472 1.3934C6.92893 0.807611 5.97919 0.807611 5.3934 1.3934C4.80761 1.97919 4.80761 2.92893 5.3934 3.51472L14.9393 13.0607ZM14.5 11V12H17.5V11H14.5Z" fill="#EB621D"/>
</svg>
